<?xml version="1.0" encoding="UTF-8" standalone="no"?>
<svg
   width="200"
   height="200"
   version="1.1"
   viewBox="0 0 199.99999 200"
   id="svg23"
   xmlns:xlink="http://www.w3.org/1999/xlink"
   xmlns="http://www.w3.org/2000/svg"
   xmlns:svg="http://www.w3.org/2000/svg">
  <!-- Copyright &#169; 2023 Igalia, S.L. All rights reserved. -->
  <defs
     id="defs8">
    <linearGradient
       id="linearGradient4252"
       x1="25.132999"
       x2="147.37"
       y1="142.28"
       y2="142.28"
       gradientUnits="userSpaceOnUse"
       xlink:href="#redGradient" />
    <linearGradient
       id="redGradient"
       x1="25.132999"
       x2="147.37"
       y1="142.28"
       y2="142.28"
       gradientUnits="userSpaceOnUse">
      <stop
         stop-color="#f00"
         offset="0"
         id="stop1" />
      <stop
         stop-color="#670164"
         offset="1"
         id="stop2" />
    </linearGradient>
    <linearGradient
       id="linearGradient4254"
       x1="1765.1"
       x2="1887.3"
       y1="692.71997"
       y2="692.71997"
       gradientTransform="rotate(-90,680.97,1231.6)"
       gradientUnits="userSpaceOnUse"
       xlink:href="#orangeGradient" />
    <linearGradient
       id="orangeGradient"
       x1="1765.1"
       x2="1887.3"
       y1="692.71997"
       y2="692.71997"
       gradientTransform="rotate(-90,680.97,1231.6)"
       gradientUnits="userSpaceOnUse">
      <stop
         stop-color="#ff9"
         offset="0"
         id="stop3" />
      <stop
         stop-color="#f90"
         offset="1"
         id="stop4" />
    </linearGradient>
    <linearGradient
       id="linearGradient4256"
       x1="1214.6"
       x2="1336.8"
       y1="2432.8"
       y2="2432.8"
       gradientTransform="rotate(180,680.97,1231.6)"
       gradientUnits="userSpaceOnUse"
       xlink:href="#blueGradient" />
    <linearGradient
       id="blueGradient"
       x1="1214.6"
       x2="1336.8"
       y1="2432.8"
       y2="2432.8"
       gradientTransform="rotate(180,680.97,1231.6)"
       gradientUnits="userSpaceOnUse">
      <stop
         stop-color="#bfe7e5"
         offset="0"
         id="stop5" />
      <stop
         stop-color="#0067b1"
         offset="1"
         id="stop6" />
    </linearGradient>
    <linearGradient
       id="linearGradient4258"
       x1="-525.38"
       x2="-403.14001"
       y1="1882.1"
       y2="1882.1"
       gradientTransform="rotate(90,680.97,1231.6)"
       gradientUnits="userSpaceOnUse"
       xlink:href="#greenGradient" />
    <linearGradient
       id="greenGradient"
       x1="-525.38"
       x2="-403.14001"
       y1="1882.1"
       y2="1882.1"
       gradientTransform="rotate(90,680.97,1231.6)"
       gradientUnits="userSpaceOnUse">
      <stop
         stop-color="#ff0"
         offset="0"
         id="stop7" />
      <stop
         stop-color="#a1c22d"
         offset="1"
         id="stop8" />
    </linearGradient>
    <linearGradient
       xlink:href="#redGradient"
       id="linearGradient23"
       gradientUnits="userSpaceOnUse"
       x1="25.132999"
       y1="142.28"
       x2="147.37"
       y2="142.28" />
    <linearGradient
       xlink:href="#orangeGradient"
       id="linearGradient24"
       gradientUnits="userSpaceOnUse"
       gradientTransform="rotate(-90,680.97,1231.6)"
       x1="1765.1"
       y1="692.71997"
       x2="1887.3"
       y2="692.71997" />
    <linearGradient
       xlink:href="#blueGradient"
       id="linearGradient25"
       gradientUnits="userSpaceOnUse"
       gradientTransform="rotate(180,680.97,1231.6)"
       x1="1214.6"
       y1="2432.8"
       x2="1336.8"
       y2="2432.8" />
    <linearGradient
       xlink:href="#greenGradient"
       id="linearGradient26"
       gradientUnits="userSpaceOnUse"
       gradientTransform="rotate(90,680.97,1231.6)"
       x1="-525.38"
       y1="1882.1"
       x2="-403.14001"
       y2="1882.1" />
  </defs>
  <g
     transform="translate(-111.68,-130.2)"
     id="g23">
    <path
       d="m 211.03761,134.29298 c -25.6498,0 -46.58227,10.29572 -61.05381,22.37492 -0.10683,0.089 -0.20601,0.18871 -0.31224,0.27774 -0.38764,0.32664 -0.7666,0.64267 -1.14475,0.97135 -0.63999,0.55423 -1.29328,1.10293 -1.90797,1.6652 -0.63434,0.58117 -1.19926,1.1838 -1.80397,1.7692 -0.35334,0.34168 -0.73141,0.66194 -1.07543,1.00603 -0.34199,0.34232 -0.66625,0.72397 -1.00603,1.07543 -0.21503,0.22257 -0.44515,0.43325 -0.65913,0.65913 -0.3422,0.36113 -0.70024,0.70412 -1.04073,1.07542 -0.0282,0.0314 -0.0414,0.0733 -0.0693,0.10405 -0.89723,0.98106 -1.79051,2.0008 -2.67117,3.05285 -0.15096,0.18118 -0.30086,0.37241 -0.45103,0.55485 -0.76566,0.92872 -1.50728,1.86326 -2.25495,2.84463 -0.76246,1.00087 -1.51564,2.0328 -2.25495,3.08739 -0.0964,0.13855 -0.1817,0.27711 -0.27755,0.41629 -9.05685,13.05846 -16.14777,30.12204 -17.06907,50.19623 -0.0295,0.63693 -0.0527,1.26508 -0.0693,1.90793 -0.0421,1.18782 -0.0693,2.40111 -0.0693,3.60778 0,23.89177 8.82584,43.57127 19.77269,57.82747 0.80166,1.04417 1.60655,2.06752 2.42841,3.05285 0.0887,0.10656 0.18859,0.20626 0.2775,0.31222 0.39159,0.4652 0.78434,0.90099 1.17949,1.35291 0.48708,0.55925 0.9634,1.12518 1.45703,1.66513 0.58293,0.63603 1.18172,1.23204 1.7692,1.83862 0.33968,0.35111 0.6641,0.73345 1.00605,1.07543 0.34205,0.34167 0.72407,0.66613 1.07538,1.00598 0.57283,0.55483 1.13508,1.11411 1.73455,1.66522 0.24533,0.22507 0.51386,0.43508 0.7632,0.65913 1.76187,1.58555 3.60739,3.15859 5.58541,4.68329 0.20828,0.15992 0.41398,0.32726 0.62443,0.48586 13.81101,10.47113 32.6534,18.9665 55.29809,19.49588 1.09895,0.0378 2.21469,0.0696 3.33029,0.0696 25.78919,-9.9e-4 46.81718,-10.41435 61.29657,-22.58478 0.0702,-0.0565 0.13819,-0.1148 0.20814,-0.17366 1.00251,-0.84727 1.94089,-1.70601 2.87935,-2.56714 0.0307,-0.0252 0.0733,-0.0439 0.10404,-0.0696 0.6017,-0.55361 1.15972,-1.14272 1.73455,-1.69977 0.35123,-0.33981 0.73344,-0.66431 1.07543,-1.00608 0.34414,-0.3442 0.66399,-0.72175 1.00603,-1.07543 0.58556,-0.60501 1.18784,-1.16954 1.76917,-1.80397 1.36564,-1.49383 2.71196,-3.11149 4.02432,-4.75258 11.2268,-13.97312 20.63018,-33.58959 21.19751,-57.41243 0.0363,-1.09868 0.0693,-2.2151 0.0693,-3.3303 0,-21.99981 -7.60266,-40.53287 -17.37996,-54.49932 -0.0959,-0.13794 -0.18119,-0.279 -0.27755,-0.4163 -1.59802,-2.25847 -3.23691,-4.37241 -4.92604,-6.38299 -0.0583,-0.0695 -0.11499,-0.13856 -0.17341,-0.20814 -0.84739,-1.00319 -1.70605,-1.97492 -2.56714,-2.91409 -0.0282,-0.0314 -0.0413,-0.0733 -0.0693,-0.10405 -0.55341,-0.60188 -1.14277,-1.15941 -1.69982,-1.73451 -0.34012,-0.35111 -0.66378,-0.73329 -1.00604,-1.07543 -0.34199,-0.34167 -0.7242,-0.66622 -1.07542,-1.00607 -0.22357,-0.21629 -0.43148,-0.44328 -0.65913,-0.65913 -0.35091,-0.33291 -0.68097,-0.67581 -1.04072,-1.00605 -0.0421,-0.0375 -0.0968,-0.0659 -0.13888,-0.10405 -0.93689,-0.85666 -1.88397,-1.69534 -2.87936,-2.5324 -0.068,-0.0564 -0.13968,-0.116 -0.20815,-0.17367 -0.0558,-0.0438 -0.1173,-0.0922 -0.17341,-0.13856 -13.62112,-11.41632 -33.0148,-21.19362 -56.69982,-22.28837 -0.55552,-0.0314 -1.10521,-0.0501 -1.66516,-0.0696 -0.0693,-0.001 -0.13868,0.001 -0.20815,0 -1.19006,-0.0439 -2.39681,-0.0695 -3.60779,-0.0695 z m 0.72851,44.02156 c 10.95469,8.01338 20.82635,16.76365 27.78687,23.72887 7.03764,7.03766 15.92771,17.0491 24.04094,28.1694 -8.09992,11.10661 -16.97471,21.10513 -24.00531,28.13417 -7.00281,7.00084 -16.96805,15.8126 -27.99674,23.86827 -11.04003,-8.04824 -20.97356,-16.82944 -27.9752,-23.83459 -7.00829,-7.00477 -15.85018,-16.99899 -23.93679,-28.06565 8.07838,-11.00793 16.93125,-20.92463 23.93679,-27.92625 7.03805,-7.03805 17.04049,-15.93672 28.13417,-24.07422 z"
       fill="#ffffff"
       stroke-width="1.65883"
       id="path8" />
    <g
       transform="matrix(1.110112,0,0,1.110112,115.85125,134.29243)"
       id="g12">
      <path
         d="m 25.133,147.53 c 20.229,20.221 66.438,-15.891 86.329,-35.777 9.527,9.531 25.533,25.377 35.91,35.758 -13.47,13.46 -34.92,25.26 -61.6,25.26 -26.681,0 -47.707,-12.31 -60.637,-25.24 z"
         fill="url(#linearGradient4252)"
         id="path9"
         style="fill:url(#linearGradient23)" />
      <path
         d="m 147.37,147.51 c 20.23,-20.227 -16.041,-66.597 -35.928,-86.484 9.527,-9.531 25.529,-25.381 35.904,-35.761 13.479,13.477 25.28,34.927 25.28,61.606 0,26.678 -12.323,47.704 -25.256,60.639 z"
         fill="url(#linearGradient4254)"
         id="path10"
         style="fill:url(#linearGradient24)" />
      <path
         d="M 147.35,25.265 C 127.12,5.035 80.932,41.462 61.048,61.349 51.519,51.821 35.491,35.662 25.114,25.287 38.58,11.818 60.034,0.018 86.715,0.018 c 26.68,0 47.702,12.314 60.633,25.247 z"
         fill="url(#linearGradient4256)"
         id="path11"
         style="fill:url(#linearGradient25)" />
      <path
         d="M 25.114,25.288 C 4.887,45.513 41.162,91.881 61.048,111.77 51.514,121.3 35.513,137.15 25.133,147.53 11.666,134.06 0.021,112.76 0.021,86.081 0.021,59.401 12.18,38.216 25.114,25.288 Z"
         fill="url(#linearGradient4258)"
         id="path12"
         style="fill:url(#linearGradient26)" />
    </g>
    <g
       transform="matrix(1.110112,0,0,1.110112,115.85236,134.28632)"
       style="mix-blend-mode:multiply"
       id="g16">
      <path
         d="m 147.37,147.51 c -20.223,20.229 -66.438,-15.846 -86.324,-35.74 -9.534,9.531 -25.535,25.381 -35.915,35.76 13.474,13.469 34.926,25.27 61.608,25.27 26.674,-0.001 47.705,-12.358 60.631,-25.29 z"
         fill="url(#linearGradient4252)"
         id="path13"
         style="fill:url(#linearGradient4252)" />
      <path
         d="m 147.35,25.265 c 20.229,20.228 -15.998,66.601 -35.887,86.487 9.537,9.539 25.533,25.377 35.91,35.758 13.471,-13.479 25.272,-34.928 25.272,-61.603 0,-26.679 -12.36,-47.707 -25.29,-60.642 z"
         fill="url(#linearGradient4254)"
         id="path14"
         style="fill:url(#linearGradient4254)" />
      <path
         d="M 25.114,25.288 C 45.343,5.065 91.557,41.135 111.44,61.026 120.97,51.493 136.97,35.645 147.35,25.265 133.88,11.797 112.43,0 85.747,0 59.066,0 38.048,12.359 25.114,25.288 Z"
         fill="url(#linearGradient4256)"
         id="path15"
         style="fill:url(#linearGradient4256)" />
      <path
         d="M 25.133,147.53 C 4.904,127.3 41.156,81.231 61.048,61.35 51.516,51.813 35.493,35.666 25.114,25.288 11.643,38.761 0,60.37 0,87.049 0,113.72 12.204,134.6 25.133,147.53 Z"
         fill="url(#linearGradient4258)"
         id="path16"
         style="fill:url(#linearGradient4258)" />
    </g>
  </g>
</svg>
